<mxfile host="app.diagrams.net" modified="2023-11-14T14:30:03.196Z" agent="Mozilla/5.0 (Windows NT 10.0; Win64; x64) AppleWebKit/537.36 (KHTML, like Gecko) Chrome/119.0.0.0 Safari/537.36 Edg/119.0.0.0" etag="eNMGm4W_t4KcgNclV3cS" version="22.1.0" type="device">
  <diagram name="Page-1" id="c4acf3e9-155e-7222-9cf6-157b1a14988f">
    <mxGraphModel dx="868" dy="1553" grid="0" gridSize="10" guides="1" tooltips="1" connect="1" arrows="1" fold="1" page="1" pageScale="1" pageWidth="850" pageHeight="1100" background="none" math="0" shadow="0">
      <root>
        <mxCell id="0" />
        <mxCell id="1" parent="0" />
        <mxCell id="5d2195bd80daf111-5" value="Сильные стороны S" style="swimlane;html=1;fontStyle=0;childLayout=stackLayout;horizontal=1;startSize=26;fillColor=none;horizontalStack=0;resizeParent=1;resizeLast=0;collapsible=1;marginBottom=0;swimlaneFillColor=#ffffff;rounded=0;shadow=0;comic=0;labelBackgroundColor=none;strokeWidth=1;fontFamily=Verdana;fontSize=10;align=center;" parent="1" vertex="1">
          <mxGeometry x="112" y="-835" width="220" height="160" as="geometry" />
        </mxCell>
        <mxCell id="5d2195bd80daf111-6" value="Высококвалифицированная техническая команда" style="text;html=1;strokeColor=none;fillColor=none;align=left;verticalAlign=top;spacingLeft=4;spacingRight=4;whiteSpace=wrap;overflow=hidden;rotatable=0;points=[[0,0.5],[1,0.5]];portConstraint=eastwest;" parent="5d2195bd80daf111-5" vertex="1">
          <mxGeometry y="26" width="220" height="34" as="geometry" />
        </mxCell>
        <mxCell id="g82IemDxOe2wONCrsWAE-1" value="Кроссплатформенность приложения" style="text;html=1;strokeColor=none;fillColor=none;align=left;verticalAlign=top;spacingLeft=4;spacingRight=4;whiteSpace=wrap;overflow=hidden;rotatable=0;points=[[0,0.5],[1,0.5]];portConstraint=eastwest;" vertex="1" parent="5d2195bd80daf111-5">
          <mxGeometry y="60" width="220" height="24" as="geometry" />
        </mxCell>
        <mxCell id="g82IemDxOe2wONCrsWAE-2" value="Эксклюзивные коллаборации" style="text;html=1;strokeColor=none;fillColor=none;align=left;verticalAlign=top;spacingLeft=4;spacingRight=4;whiteSpace=wrap;overflow=hidden;rotatable=0;points=[[0,0.5],[1,0.5]];portConstraint=eastwest;" vertex="1" parent="5d2195bd80daf111-5">
          <mxGeometry y="84" width="220" height="24" as="geometry" />
        </mxCell>
        <mxCell id="g82IemDxOe2wONCrsWAE-3" value="Высокий уровень сервиса" style="text;html=1;strokeColor=none;fillColor=none;align=left;verticalAlign=top;spacingLeft=4;spacingRight=4;whiteSpace=wrap;overflow=hidden;rotatable=0;points=[[0,0.5],[1,0.5]];portConstraint=eastwest;" vertex="1" parent="5d2195bd80daf111-5">
          <mxGeometry y="108" width="220" height="24" as="geometry" />
        </mxCell>
        <mxCell id="g82IemDxOe2wONCrsWAE-4" value="Слабые стороны W" style="swimlane;html=1;fontStyle=0;childLayout=stackLayout;horizontal=1;startSize=26;fillColor=none;horizontalStack=0;resizeParent=1;resizeLast=0;collapsible=1;marginBottom=0;swimlaneFillColor=#ffffff;rounded=0;shadow=0;comic=0;labelBackgroundColor=none;strokeWidth=1;fontFamily=Verdana;fontSize=10;align=center;" vertex="1" parent="1">
          <mxGeometry x="112" y="-675" width="220" height="122" as="geometry" />
        </mxCell>
        <mxCell id="g82IemDxOe2wONCrsWAE-5" value="Низкая доля высокодоходной аудитории" style="text;html=1;strokeColor=none;fillColor=none;align=left;verticalAlign=top;spacingLeft=4;spacingRight=4;whiteSpace=wrap;overflow=hidden;rotatable=0;points=[[0,0.5],[1,0.5]];portConstraint=eastwest;" vertex="1" parent="g82IemDxOe2wONCrsWAE-4">
          <mxGeometry y="26" width="220" height="34" as="geometry" />
        </mxCell>
        <mxCell id="g82IemDxOe2wONCrsWAE-9" value="Возможности O" style="swimlane;html=1;fontStyle=0;childLayout=stackLayout;horizontal=1;startSize=26;fillColor=none;horizontalStack=0;resizeParent=1;resizeLast=0;collapsible=1;marginBottom=0;swimlaneFillColor=#ffffff;rounded=0;shadow=0;comic=0;labelBackgroundColor=none;strokeWidth=1;fontFamily=Verdana;fontSize=10;align=center;" vertex="1" parent="1">
          <mxGeometry x="332" y="-965" width="220" height="130" as="geometry" />
        </mxCell>
        <mxCell id="g82IemDxOe2wONCrsWAE-10" value="Увеличение охвата аудитории" style="text;html=1;strokeColor=none;fillColor=none;align=left;verticalAlign=top;spacingLeft=4;spacingRight=4;whiteSpace=wrap;overflow=hidden;rotatable=0;points=[[0,0.5],[1,0.5]];portConstraint=eastwest;" vertex="1" parent="g82IemDxOe2wONCrsWAE-9">
          <mxGeometry y="26" width="220" height="24" as="geometry" />
        </mxCell>
        <mxCell id="g82IemDxOe2wONCrsWAE-11" value="Выход в сегмент премиум" style="text;html=1;strokeColor=none;fillColor=none;align=left;verticalAlign=top;spacingLeft=4;spacingRight=4;whiteSpace=wrap;overflow=hidden;rotatable=0;points=[[0,0.5],[1,0.5]];portConstraint=eastwest;" vertex="1" parent="g82IemDxOe2wONCrsWAE-9">
          <mxGeometry y="50" width="220" height="24" as="geometry" />
        </mxCell>
        <mxCell id="g82IemDxOe2wONCrsWAE-19" value="Захват сегмента рынка" style="text;html=1;strokeColor=none;fillColor=none;align=left;verticalAlign=top;spacingLeft=4;spacingRight=4;whiteSpace=wrap;overflow=hidden;rotatable=0;points=[[0,0.5],[1,0.5]];portConstraint=eastwest;" vertex="1" parent="g82IemDxOe2wONCrsWAE-9">
          <mxGeometry y="74" width="220" height="24" as="geometry" />
        </mxCell>
        <mxCell id="g82IemDxOe2wONCrsWAE-14" value="Мероприятия S - O" style="swimlane;html=1;fontStyle=0;childLayout=stackLayout;horizontal=1;startSize=26;fillColor=none;horizontalStack=0;resizeParent=1;resizeLast=0;collapsible=1;marginBottom=0;swimlaneFillColor=#ffffff;rounded=0;shadow=0;comic=0;labelBackgroundColor=none;strokeWidth=1;fontFamily=Verdana;fontSize=10;align=center;" vertex="1" parent="1">
          <mxGeometry x="332" y="-835" width="220" height="160" as="geometry" />
        </mxCell>
        <mxCell id="g82IemDxOe2wONCrsWAE-15" value="За счет высококвалифицированной команды приложение может быть разработано точно в срок, что позволит захватить значительный сегмент рынка" style="text;html=1;strokeColor=none;fillColor=none;align=left;verticalAlign=top;spacingLeft=4;spacingRight=4;whiteSpace=wrap;overflow=hidden;rotatable=0;points=[[0,0.5],[1,0.5]];portConstraint=eastwest;" vertex="1" parent="g82IemDxOe2wONCrsWAE-14">
          <mxGeometry y="26" width="220" height="84" as="geometry" />
        </mxCell>
        <mxCell id="g82IemDxOe2wONCrsWAE-20" value="Эксклюзивные коллаборации позволят выйти в премиум сегмент аналогичных приложений" style="text;html=1;strokeColor=none;fillColor=none;align=left;verticalAlign=top;spacingLeft=4;spacingRight=4;whiteSpace=wrap;overflow=hidden;rotatable=0;points=[[0,0.5],[1,0.5]];portConstraint=eastwest;" vertex="1" parent="g82IemDxOe2wONCrsWAE-14">
          <mxGeometry y="110" width="220" height="50" as="geometry" />
        </mxCell>
        <mxCell id="g82IemDxOe2wONCrsWAE-21" value="Мероприятия W - O" style="swimlane;html=1;fontStyle=0;childLayout=stackLayout;horizontal=1;startSize=26;fillColor=none;horizontalStack=0;resizeParent=1;resizeLast=0;collapsible=1;marginBottom=0;swimlaneFillColor=#ffffff;rounded=0;shadow=0;comic=0;labelBackgroundColor=none;strokeWidth=1;fontFamily=Verdana;fontSize=10;align=center;" vertex="1" parent="1">
          <mxGeometry x="332" y="-675" width="220" height="122" as="geometry">
            <mxRectangle x="360" y="190" width="140" height="30" as="alternateBounds" />
          </mxGeometry>
        </mxCell>
        <mxCell id="g82IemDxOe2wONCrsWAE-22" value="Увеличивать охват аудитории для привлечения более платежеспособной аудитории за счет коллабораций и высокого сервиса" style="text;html=1;strokeColor=none;fillColor=none;align=left;verticalAlign=top;spacingLeft=4;spacingRight=4;whiteSpace=wrap;overflow=hidden;rotatable=0;points=[[0,0.5],[1,0.5]];portConstraint=eastwest;" vertex="1" parent="g82IemDxOe2wONCrsWAE-21">
          <mxGeometry y="26" width="220" height="94" as="geometry" />
        </mxCell>
        <mxCell id="g82IemDxOe2wONCrsWAE-23" value="Угрозы T" style="swimlane;html=1;fontStyle=0;childLayout=stackLayout;horizontal=1;startSize=26;fillColor=none;horizontalStack=0;resizeParent=1;resizeLast=0;collapsible=1;marginBottom=0;swimlaneFillColor=#ffffff;rounded=0;shadow=0;comic=0;labelBackgroundColor=none;strokeWidth=1;fontFamily=Verdana;fontSize=10;align=center;" vertex="1" parent="1">
          <mxGeometry x="552" y="-965" width="220" height="130" as="geometry" />
        </mxCell>
        <mxCell id="g82IemDxOe2wONCrsWAE-24" value="Значительный рост затрат в отрасли" style="text;html=1;strokeColor=none;fillColor=none;align=left;verticalAlign=top;spacingLeft=4;spacingRight=4;whiteSpace=wrap;overflow=hidden;rotatable=0;points=[[0,0.5],[1,0.5]];portConstraint=eastwest;" vertex="1" parent="g82IemDxOe2wONCrsWAE-23">
          <mxGeometry y="26" width="220" height="24" as="geometry" />
        </mxCell>
        <mxCell id="g82IemDxOe2wONCrsWAE-25" value="Противодейсвтие со стороны конкурентов: снижение цен, разработка новых видов услуг" style="text;html=1;strokeColor=none;fillColor=none;align=left;verticalAlign=top;spacingLeft=4;spacingRight=4;whiteSpace=wrap;overflow=hidden;rotatable=0;points=[[0,0.5],[1,0.5]];portConstraint=eastwest;" vertex="1" parent="g82IemDxOe2wONCrsWAE-23">
          <mxGeometry y="50" width="220" height="50" as="geometry" />
        </mxCell>
        <mxCell id="g82IemDxOe2wONCrsWAE-33" value="Снижение доходов части клиентов" style="text;html=1;strokeColor=none;fillColor=none;align=left;verticalAlign=top;spacingLeft=4;spacingRight=4;whiteSpace=wrap;overflow=hidden;rotatable=0;points=[[0,0.5],[1,0.5]];portConstraint=eastwest;" vertex="1" parent="g82IemDxOe2wONCrsWAE-23">
          <mxGeometry y="100" width="220" height="20" as="geometry" />
        </mxCell>
        <mxCell id="g82IemDxOe2wONCrsWAE-27" value="Мероприятия S - T" style="swimlane;html=1;fontStyle=0;childLayout=stackLayout;horizontal=1;startSize=26;fillColor=none;horizontalStack=0;resizeParent=1;resizeLast=0;collapsible=1;marginBottom=0;swimlaneFillColor=#ffffff;rounded=0;shadow=0;comic=0;labelBackgroundColor=none;strokeWidth=1;fontFamily=Verdana;fontSize=10;align=center;" vertex="1" parent="1">
          <mxGeometry x="552" y="-835" width="220" height="160" as="geometry" />
        </mxCell>
        <mxCell id="g82IemDxOe2wONCrsWAE-28" value="За счет исходного высокого сервиса и большого количества коллабораций, а следовательно и популярности повысить продажи подписок" style="text;html=1;strokeColor=none;fillColor=none;align=left;verticalAlign=top;spacingLeft=4;spacingRight=4;whiteSpace=wrap;overflow=hidden;rotatable=0;points=[[0,0.5],[1,0.5]];portConstraint=eastwest;" vertex="1" parent="g82IemDxOe2wONCrsWAE-27">
          <mxGeometry y="26" width="220" height="84" as="geometry" />
        </mxCell>
        <mxCell id="g82IemDxOe2wONCrsWAE-31" value="Мероприятия W - O" style="swimlane;html=1;fontStyle=0;childLayout=stackLayout;horizontal=1;startSize=26;fillColor=none;horizontalStack=0;resizeParent=1;resizeLast=0;collapsible=1;marginBottom=0;swimlaneFillColor=#ffffff;rounded=0;shadow=0;comic=0;labelBackgroundColor=none;strokeWidth=1;fontFamily=Verdana;fontSize=10;align=center;" vertex="1" parent="1">
          <mxGeometry x="552" y="-675" width="220" height="122" as="geometry">
            <mxRectangle x="360" y="190" width="140" height="30" as="alternateBounds" />
          </mxGeometry>
        </mxCell>
        <mxCell id="g82IemDxOe2wONCrsWAE-32" value="Из-за снижения уровня доходов населения акцентировать внимание на бесплатном сервисе и доходах с рекламных интеграций" style="text;html=1;strokeColor=none;fillColor=none;align=left;verticalAlign=top;spacingLeft=4;spacingRight=4;whiteSpace=wrap;overflow=hidden;rotatable=0;points=[[0,0.5],[1,0.5]];portConstraint=eastwest;" vertex="1" parent="g82IemDxOe2wONCrsWAE-31">
          <mxGeometry y="26" width="220" height="94" as="geometry" />
        </mxCell>
      </root>
    </mxGraphModel>
  </diagram>
</mxfile>
